PathFileType	4	(X/Y/Z)	Patient4_TMGait_0pt4_01_left_35.trc.trc
DataRate	CameraRate	NumFrames	NumMarkers	Units	OrigDataRate	OrigDataStartFrame	OrigNumFrames
72.538860103627	72.538860103627	4	33	mm	72.538860103627	18	       141
Frame#	Time	Sacral			L.Shoulder			Chest			R.Shoulder			Neck			R.ASIS			L.ASIS			R.Thigh.Superior			R.Thigh.Lateral			R.Thigh.Inferior			R.Patella			L.Thigh.Superior			L.Thigh.Lateral			L.Thigh.Inferior			L.Patella			L.Shank.Superior			L.Shank.Lateral			L.Shank.Inferior			R.Shank.Superior			R.Shank.Lateral			R.Shank.Inferior			R.Heel			R.Midfoot.Superior			R.Midfoot.Lateral			R.Toe			L.Heel			L.Midfoot.Lateral			L.Midfoot.Superior			L.Toe			L.Elbow			L.Wrist			R.Elbow			R.Wrist			
		X1	Y1	Z1	X2	Y2	Z2	X3	Y3	Z3	X4	Y4	Z4	X5	Y5	Z5	X6	Y6	Z6	X7	Y7	Z7	X8	Y8	Z8	X9	Y9	Z9	X10	Y10	Z10	X11	Y11	Z11	X12	Y12	Z12	X13	Y13	Z13	X14	Y14	Z14	X15	Y15	Z15	X16	Y16	Z16	X17	Y17	Z17	X18	Y18	Z18	X19	Y19	Z19	X20	Y20	Z20	X21	Y21	Z21	X22	Y22	Z22	X23	Y23	Z23	X24	Y24	Z24	X25	Y25	Z25	X26	Y26	Z26	X27	Y27	Z27	X28	Y28	Z28	X29	Y29	Z29	X30	Y30	Z30	X31	Y31	Z31	X32	Y32	Z32	X33	Y33	Z33	

18	43.684357142857	837.704951250156	1010.119403663910	561.959710340906	997.431353376265	1431.229863746115	354.549265203081	1122.940962808001	1362.615213130821	498.578568467737	1070.182927431551	1439.951922681006	682.625423722292	1004.684169605068	1494.416451238639	511.106541742854	1076.066046532249	939.176717452024	646.600598916192	1027.740924428918	961.442165222681	374.916342036246	1075.037239728676	728.463384033233	619.441242098279	976.153238022693	633.192477381891	687.735458079713	1033.401595405303	569.395803092549	604.731545669397	1017.875995637119	487.527282904884	610.895741229413	1099.892725451166	772.978488416588	400.241443185232	1045.547752554695	647.801098365909	322.291082255002	1149.607230877526	585.753586403892	379.549435815399	1176.363822484736	525.508793073302	374.646263000017	1163.014923717784	455.545157739652	363.527305848465	1102.521541601009	322.814191505012	313.070434250837	1197.652259420865	228.029427742497	363.328380973721	984.461640853982	402.552224167073	617.403355617378	908.805608609233	302.411543551706	680.238231566998	943.190805166921	206.086785216480	613.339919328331	802.357094642181	44.258570221298	580.163770670312	973.519304709133	96.449485735859	619.087672379538	884.644298457518	36.548681334440	655.939558155717	1093.225017197078	41.092356753691	647.729250965846	1125.081939165222	45.707754640812	403.950264351778	1197.509319886614	50.913820986861	323.039311044440	1265.737679369003	131.898655081889	340.495678871000	1399.866721034382	106.982929347862	313.248585100070	890.863974875194	1086.118511849239	272.399384258068	901.653451608024	825.640529911552	270.392092034293	1173.371247224165	1115.883738895642	811.524546463793	1419.713571470264	1059.598622831599	769.466497046032	
19	43.698142857143	838.016244769992	1009.367860481711	560.053038354294	996.498876252170	1430.435913835992	352.171586260608	1122.404783743236	1362.180784272998	496.005069450580	1069.821520014920	1439.573777947480	680.072754719875	1003.911629771070	1493.713631867323	508.623207527402	1076.419271016682	938.711421496970	645.046240626417	1028.282842359473	960.289222917341	373.077597282692	1074.260687881553	727.680150052623	618.428799747703	974.559737013444	632.894970372527	686.643315399131	1031.624007268784	568.651487563779	603.942716100487	1015.552711774178	486.694708869973	610.146488853574	1100.995714135584	772.220397999330	398.803032769974	1045.489761021918	645.844262866346	322.691841900933	1150.278799848600	584.567186024197	378.861150967353	1176.502425280365	523.645771083456	374.766923905319	1162.479180015532	453.181335025704	364.487391656940	1100.231194826827	321.049528429664	315.033352771371	1194.032038180418	225.470843078574	365.663702125586	981.459697645123	401.944503917224	616.780924086037	905.060175297647	302.520114807586	679.933464653509	938.600012189136	205.796911172077	613.161226303454	796.817979652237	44.275107107092	580.318280273093	967.951731977839	96.412968017804	619.129240277704	879.078575980319	36.519480551729	656.010767372876	1087.656428659750	41.037789469243	647.792267619120	1118.826418897974	45.325589838323	407.412719020413	1190.900480643825	48.986429307688	326.130486990226	1260.904460553300	128.142371613562	343.334500646205	1394.160452417521	100.241098141878	315.451361872631	888.728323927920	1085.648139981054	271.009504647699	898.249559097389	825.124868643419	269.230653669183	1175.992575483015	1116.453271204834	808.138224756181	1423.122190627486	1065.865779398376	764.994641428443	
20	43.711928571429	838.471661525549	1008.442381611714	557.790080263237	995.676020780062	1429.485755257790	349.553440212281	1121.888255653447	1361.701582930211	493.318486560463	1069.246069707438	1439.103432136009	677.365055891639	1003.102431496427	1492.906257954028	505.911909464146	1076.868099871029	938.156485315188	643.439170702171	1029.184606654142	959.008301044537	371.191819402699	1073.761196132431	726.842588619734	617.327783344758	973.265024342073	632.504782377557	685.388990247662	1030.213099860318	567.816570662550	603.010165031013	1013.564300694977	485.743744001244	609.211726108069	1102.553215901951	771.274165378924	397.383685467306	1045.915733264523	643.817468123780	323.054931958728	1151.246517721718	583.223324283627	378.382961158922	1176.723185292494	521.326700210868	375.114869086376	1161.774268906136	450.280117067832	365.635371897078	1097.186542836429	319.076832361804	317.025668303897	1189.008014854249	222.213297991091	368.234177055420	978.752523333758	401.206724485976	616.010883922076	901.540246934524	302.585568739457	679.515815962668	934.116622470071	205.430880760548	612.898703282753	791.279277716888	44.291064781098	580.463693873765	962.375729141973	96.377809892318	619.141968703338	873.517812551523	36.496431818831	656.084935368835	1082.091547773055	40.978409284276	647.855436612070	1110.126549679764	44.654212144162	410.717141596125	1182.038929832860	46.723550544953	329.213929101401	1254.134832382355	123.591709145400	346.621108904794	1386.459511626003	92.133156019211	318.275489424664	887.102466035432	1084.919606455514	269.202811759195	895.779517229434	824.372191850993	267.563799534082	1177.919593282577	1116.779421798433	804.768657061091	1425.623893265311	1071.160307162395	760.653840206673	
21	43.725714285714	839.061237302978	1007.369436264389	555.190259369193	994.994898178027	1428.396335471534	346.694530011820	1121.410855383629	1361.188478197541	490.525562733764	1068.480051866262	1438.553914284331	674.508118418562	1002.293878834180	1492.016260833014	502.975986917808	1077.410239108081	937.521062286872	641.750492308214	1030.402309407366	957.638681229084	369.259752844195	1073.555084667641	725.959396610476	616.126091156293	972.275719432448	632.033939914091	683.957139298740	1029.163586326447	566.902584932225	601.921518273599	1011.903987076913	484.681755283646	608.071941694903	1104.418438157825	770.095803682094	396.005277632296	1046.705446935200	641.773292734203	323.321877364086	1152.344654258082	581.725735028643	378.153487161867	1176.872650648569	518.646540205957	375.717225114469	1160.877780850404	446.999412515504	366.905968672037	1093.641265445929	316.939357016800	318.948534168322	1183.036100278657	218.485920248113	370.921629852448	976.331060031091	400.354541426550	615.081849704177	898.241495911216	302.623528391331	678.978833968735	929.737936032462	205.006431544480	612.550599674122	785.742516857435	44.332928233068	580.603591740390	956.801595297897	96.351467419546	619.129940525810	867.968042901312	36.490950219683	656.165016634389	1076.535831750602	40.909525611642	647.918265394632	1099.818184983556	43.735834118000	413.716884043275	1171.764705223399	44.324696907394	332.152470034328	1246.075852004230	118.612428775388	350.220379126336	1377.481726880173	83.335183626740	321.608555195076	886.024604631597	1083.938584916297	266.979103063035	894.245305196648	823.384005500947	265.396779041760	1179.133719917225	1116.846657100085	801.449571100864	1427.248450917769	1075.435544088651	756.495820953835	
